<?xml version="1.0" encoding="UTF-8" standalone="no"?>
<svg
   version="1.2"
   width="282.22mm"
   height="282.22mm"
   viewBox="0 0 28222 28222"
   preserveAspectRatio="xMidYMid"
   fill-rule="evenodd"
   stroke-width="28.222"
   stroke-linejoin="round"
   xml:space="preserve"
   id="svg17"
   sodipodi:docname="deezer-seeklogo.svg"
   inkscape:version="1.4.2 (ebf0e94, 2025-05-08)"
   xmlns:inkscape="http://www.inkscape.org/namespaces/inkscape"
   xmlns:sodipodi="http://sodipodi.sourceforge.net/DTD/sodipodi-0.dtd"
   xmlns="http://www.w3.org/2000/svg"
   xmlns:svg="http://www.w3.org/2000/svg"
   xmlns:ooo="http://xml.openoffice.org/svg/export"><sodipodi:namedview
   id="namedview17"
   pagecolor="#ffffff"
   bordercolor="#666666"
   borderopacity="1.0"
   inkscape:showpageshadow="2"
   inkscape:pageopacity="0.0"
   inkscape:pagecheckerboard="0"
   inkscape:deskcolor="#d1d1d1"
   inkscape:document-units="mm"
   inkscape:zoom="0.46594117"
   inkscape:cx="718.97489"
   inkscape:cy="533.32914"
   inkscape:window-width="1332"
   inkscape:window-height="743"
   inkscape:window-x="34"
   inkscape:window-y="0"
   inkscape:window-maximized="1"
   inkscape:current-layer="svg17" />
 <defs
   class="ClipPathGroup"
   id="defs2">
  <clipPath
   id="presentation_clip_path"
   clipPathUnits="userSpaceOnUse">
   <rect
   x="0"
   y="0"
   width="38100"
   height="28222"
   id="rect1" />
  </clipPath>
  <clipPath
   id="presentation_clip_path_shrink"
   clipPathUnits="userSpaceOnUse">
   <rect
   x="38"
   y="28"
   width="38024"
   height="28166"
   id="rect2" />
  </clipPath>
 </defs>
 <defs
   class="TextShapeIndex"
   id="defs3">
  <g
   ooo:slide="id1"
   ooo:id-list="id3 id4"
   id="g2" />
 </defs>
 <defs
   class="EmbeddedBulletChars"
   id="defs12">
  <g
   id="bullet-char-template-57356"
   transform="matrix(4.8828125e-4,0,0,-4.8828125e-4,0,0)">
   <path
   d="M 580,1141 1163,571 580,0 -4,571 Z"
   id="path3" />
  </g>
  <g
   id="bullet-char-template-57354"
   transform="matrix(4.8828125e-4,0,0,-4.8828125e-4,0,0)">
   <path
   d="M 8,1128 H 1137 V 0 H 8 Z"
   id="path4" />
  </g>
  <g
   id="bullet-char-template-10146"
   transform="matrix(4.8828125e-4,0,0,-4.8828125e-4,0,0)">
   <path
   d="M 174,0 602,739 174,1481 1456,739 Z M 1358,739 309,1346 659,739 Z"
   id="path5" />
  </g>
  <g
   id="bullet-char-template-10132"
   transform="matrix(4.8828125e-4,0,0,-4.8828125e-4,0,0)">
   <path
   d="M 2015,739 1276,0 H 717 l 543,543 H 174 v 393 h 1086 l -543,545 h 557 z"
   id="path6" />
  </g>
  <g
   id="bullet-char-template-10007"
   transform="matrix(4.8828125e-4,0,0,-4.8828125e-4,0,0)">
   <path
   d="m 0,-2 c -7,16 -16,29 -25,39 l 381,530 c -94,256 -141,385 -141,387 0,25 13,38 40,38 9,0 21,-2 34,-5 21,4 42,12 65,25 l 27,-13 111,-251 280,301 64,-25 24,25 c 21,-10 41,-24 62,-43 C 886,937 835,863 770,784 769,783 710,716 594,584 L 774,223 c 0,-27 -21,-55 -63,-84 l 16,-20 C 717,90 699,76 672,76 641,76 570,178 457,381 L 164,-76 c -22,-34 -53,-51 -92,-51 -42,0 -63,17 -64,51 -7,9 -10,24 -10,44 0,9 1,19 2,30 z"
   id="path7" />
  </g>
  <g
   id="bullet-char-template-10004"
   transform="matrix(4.8828125e-4,0,0,-4.8828125e-4,0,0)">
   <path
   d="M 285,-33 C 182,-33 111,30 74,156 52,228 41,333 41,471 c 0,78 14,145 41,201 34,71 87,106 158,106 53,0 88,-31 106,-94 l 23,-176 c 8,-64 28,-97 59,-98 l 735,706 c 11,11 33,17 66,17 42,0 63,-15 63,-46 V 965 c 0,-36 -10,-64 -30,-84 L 442,47 C 390,-6 338,-33 285,-33 Z"
   id="path8" />
  </g>
  <g
   id="bullet-char-template-9679"
   transform="matrix(4.8828125e-4,0,0,-4.8828125e-4,0,0)">
   <path
   d="M 813,0 C 632,0 489,54 383,161 276,268 223,411 223,592 c 0,181 53,324 160,431 106,107 249,161 430,161 179,0 323,-54 432,-161 108,-107 162,-251 162,-431 0,-180 -54,-324 -162,-431 C 1136,54 992,0 813,0 Z"
   id="path9" />
  </g>
  <g
   id="bullet-char-template-8226"
   transform="matrix(4.8828125e-4,0,0,-4.8828125e-4,0,0)">
   <path
   d="m 346,457 c -73,0 -137,26 -191,78 -54,51 -81,114 -81,188 0,73 27,136 81,188 54,52 118,78 191,78 73,0 134,-26 185,-79 51,-51 77,-114 77,-187 0,-75 -25,-137 -76,-188 -50,-52 -112,-78 -186,-78 z"
   id="path10" />
  </g>
  <g
   id="bullet-char-template-8211"
   transform="matrix(4.8828125e-4,0,0,-4.8828125e-4,0,0)">
   <path
   d="M -4,459 H 1135 V 606 H -4 Z"
   id="path11" />
  </g>
  <g
   id="bullet-char-template-61548"
   transform="matrix(4.8828125e-4,0,0,-4.8828125e-4,0,0)">
   <path
   d="m 173,740 c 0,163 58,303 173,419 116,115 255,173 419,173 163,0 302,-58 418,-173 116,-116 174,-256 174,-419 0,-163 -58,-303 -174,-418 C 1067,206 928,148 765,148 601,148 462,206 346,322 231,437 173,577 173,740 Z"
   id="path12" />
  </g>
 </defs>
 <g
   id="g12">
  <g
   id="id2"
   class="Master_Slide">
   <g
   id="bg-id2"
   class="Background" />
   <g
   id="bo-id2"
   class="BackgroundObjects" />
  </g>
 </g>
 <g
   class="SlideGroup"
   id="g17"
   transform="translate(-4939.0007,-1.0006994)">
  <g
   id="g16">
   <g
   id="container-id1">
    <g
   id="id1"
   class="Slide"
   clip-path="url(#presentation_clip_path)">
     <g
   class="Page"
   id="g15">
      <g
   class="com.sun.star.drawing.ClosedBezierShape"
   id="g13">
       <g
   id="id3">
        <rect
   class="BoundingBox"
   stroke="none"
   fill="none"
   x="7853"
   y="23408"
   width="22394"
   height="3850"
   id="rect12" />
        <path
   fill="#000000"
   stroke="none"
   d="m 19108,24447 h 1547 c -642,525 -1170,1121 -1577,1770 v 1039 h 3403 v -1039 h -1701 c 390,-567 934,-1132 1701,-1770 v -1039 h -3373 z m 6851,2809 h -3168 v -3848 h 3168 v 1039 h -1674 v 445 h 1574 v 850 h -1574 v 475 h 1674 z m 1858,-2128 v -681 h 520 c 220,0 345,120 345,340 0,221 -125,341 -345,341 z m 2429,2128 c -216,-588 -518,-1216 -924,-1919 475,-140 759,-440 759,-900 0,-700 -645,-1029 -1664,-1029 h -2099 v 3848 h 1499 v -1591 c 333,561 579,1090 740,1591 z m -11498,0 h -3168 v -3848 h 3168 v 1039 h -1674 v 445 h 1574 v 850 h -1574 v 475 h 1674 z m -3528,0 h -3168 v -3848 h 3168 v 1039 h -1674 v 445 h 1574 v 850 h -1574 v 475 h 1674 z M 9353,26217 h 350 c 375,0 575,-250 575,-885 0,-635 -200,-885 -575,-885 H 9353 Z M 7854,23408 h 1929 c 1194,0 2040,794 2040,1924 0,1130 -846,1924 -2040,1924 H 7854 Z"
   id="path13" />
       </g>
      </g>
      <g
   class="com.sun.star.drawing.ClosedBezierShape"
   id="g14">
       <g
   id="id4">
        <rect
   class="BoundingBox"
   stroke="none"
   fill="none"
   x="8913"
   y="966"
   width="20279"
   height="20279"
   id="rect13" />
        <path
   fill="#a238ff"
   stroke="none"
   d="m 28021,7067 c 0,-1309 262,-2370 585,-2370 323,0 585,1061 585,2370 0,1308 -262,2370 -585,2370 -323,0 -585,-1062 -585,-2370 z m -19108,0 c 0,-1309 262,-2370 585,-2370 323,0 584,1061 584,2370 0,1308 -261,2370 -584,2370 -323,0 -585,-1062 -585,-2370 z M 25920,4060 c 188,-1088 463,-1772 768,-1773 h 1 c 568,2 1029,2373 1029,5301 0,2929 -461,5302 -1031,5302 -233,0 -448,-403 -622,-1078 -274,2472 -842,4171 -1501,4171 -509,0 -966,-1021 -1273,-2631 -209,3062 -737,5234 -1353,5234 -387,0 -739,-861 -1000,-2262 -314,2893 -1040,4920 -1885,4920 -846,0 -1573,-2027 -1885,-4920 -260,1401 -612,2262 -1001,2262 -616,0 -1142,-2172 -1353,-5234 -307,1610 -763,2631 -1273,2631 -658,0 -1227,-1699 -1501,-4171 -172,677 -389,1078 -622,1078 -569,0 -1031,-2373 -1031,-5302 0,-2928 462,-5301 1031,-5301 305,0 579,686 768,1773 304,-1875 797,-3094 1355,-3094 662,0 1236,1723 1507,4226 266,-1821 668,-2983 1120,-2983 632,0 1170,2284 1369,5470 374,-1634 917,-2658 1517,-2658 600,0 1142,1025 1516,2658 200,-3186 737,-5470 1369,-5470 451,0 853,1162 1120,2983 271,-2503 845,-4226 1507,-4226 555,0 1050,1219 1354,3094 z"
   id="path14" />
       </g>
      </g>
     </g>
    </g>
   </g>
  </g>
 </g>
</svg>
