<?xml version="1.0" encoding="UTF-8" standalone="no"?>
<!-- Created with Inkscape (http://www.inkscape.org/) -->

<svg
   version="1.1"
   id="svg1"
   width="600"
   height="600"
   viewBox="0 0 600 600"
   sodipodi:docname="logo-dagklassical-orig-001.svg"
   inkscape:version="1.4.2 (ebf0e94, 2025-05-08)"
   xmlns:inkscape="http://www.inkscape.org/namespaces/inkscape"
   xmlns:sodipodi="http://sodipodi.sourceforge.net/DTD/sodipodi-0.dtd"
   xmlns="http://www.w3.org/2000/svg"
   xmlns:svg="http://www.w3.org/2000/svg">
  <sodipodi:namedview
     id="namedview1"
     pagecolor="#ffffff"
     bordercolor="#666666"
     borderopacity="1.0"
     inkscape:showpageshadow="2"
     inkscape:pageopacity="0.0"
     inkscape:pagecheckerboard="0"
     inkscape:deskcolor="#d1d1d1"
     inkscape:zoom="0.51070162"
     inkscape:cx="323.08493"
     inkscape:cy="235.94991"
     inkscape:window-width="1332"
     inkscape:window-height="743"
     inkscape:window-x="34"
     inkscape:window-y="0"
     inkscape:window-maximized="1"
     inkscape:current-layer="g1"
     showguides="true">
    <inkscape:page
       x="0"
       y="0"
       width="600"
       height="600"
       id="page2"
       margin="0"
       bleed="0" />
    <sodipodi:guide
       position="534.84426,122.99604"
       orientation="0,-1"
       id="guide1"
       inkscape:locked="false" />
    <sodipodi:guide
       position="525.56124,111.5708"
       orientation="0,-1"
       id="guide2"
       inkscape:locked="false" />
    <sodipodi:guide
       position="571.26222,155.12954"
       orientation="0,-1"
       id="guide3"
       inkscape:locked="false" />
  </sodipodi:namedview>
  <defs
     id="defs1">
    <filter
       style="color-interpolation-filters:sRGB;"
       inkscape:label="Drop Shadow"
       id="filter16"
       x="-0.0040677966"
       y="-0.0040677966"
       width="1.0149153"
       height="1.0149153">
      <feFlood
         result="flood"
         in="SourceGraphic"
         flood-opacity="0.721569"
         flood-color="rgb(0,0,0)"
         id="feFlood15" />
      <feGaussianBlur
         result="blur"
         in="SourceGraphic"
         stdDeviation="1.000000"
         id="feGaussianBlur15" />
      <feOffset
         result="offset"
         in="blur"
         dx="4.000000"
         dy="4.000000"
         id="feOffset15" />
      <feComposite
         result="comp1"
         operator="in"
         in="flood"
         in2="offset"
         id="feComposite15" />
      <feComposite
         result="comp2"
         operator="over"
         in="SourceGraphic"
         in2="comp1"
         id="feComposite16" />
    </filter>
  </defs>
  <g
     id="g1"
     transform="translate(-610)">
    <rect
       style="opacity:1;fill:#ffffff;fill-opacity:1;stroke-width:2.98525;stroke-linecap:square;filter:url(#filter16)"
       id="rect1"
       width="590"
       height="590"
       x="615"
       y="5" />
    <path
       style="font-weight:600;font-size:58.4754px;line-height:0;font-family:Montserrat;-inkscape-font-specification:'Montserrat, Semi-Bold';text-align:center;letter-spacing:2.32px;text-anchor:middle;stroke-width:0.673837"
       d="m 746.45657,525.09238 -0.40251,-8.85512 21.1028,-21.90781 h 8.39512 l -17.53775,18.63026 -4.14006,4.54257 z m -6.6701,9.48764 v -40.25057 h 7.4751 v 40.25057 z m 28.06038,0 -15.41021,-18.34276 4.94507,-5.46257 19.20528,23.80533 z m 16.13893,0 v -40.25057 h 7.47511 v 33.92548 h 21.0453 v 6.32509 z m 31.08916,0 18.11275,-40.25057 h 7.3601 l 18.17026,40.25057 h -7.82011 L 835.31523,498.297 h 2.99004 l -15.52522,36.28302 z m 8.33761,-9.31513 2.01253,-5.86508 h 21.73531 l 2.01253,5.86508 z m 55.182,9.89014 q -4.71506,0 -9.02761,-1.32252 -4.31258,-1.38002 -6.84261,-3.50755 l 2.58753,-5.80758 q 2.41504,1.89752 5.9801,3.16254 3.56503,1.26502 7.30259,1.26502 3.16255,0 5.11758,-0.69001 1.95502,-0.69001 2.87504,-1.84003 0.92001,-1.20752 0.92001,-2.70254 0,-1.84002 -1.32251,-2.93253 -1.32253,-1.15002 -3.45006,-1.78253 -2.07002,-0.69001 -4.65755,-1.26502 -2.53004,-0.575 -5.11759,-1.32251 -2.53002,-0.80502 -4.65755,-2.01253 -2.07004,-1.26502 -3.39255,-3.33506 -1.32253,-2.07002 -1.32253,-5.29006 0,-3.27755 1.72502,-5.98009 1.78252,-2.76004 5.34758,-4.37007 3.62256,-1.66751 9.14264,-1.66751 3.62255,0 7.18759,0.92 3.56506,0.92002 6.2101,2.64504 l -2.35754,5.80759 q -2.70254,-1.61002 -5.57758,-2.35753 -2.87504,-0.80502 -5.52008,-0.80502 -3.10504,0 -5.06006,0.74751 -1.89753,0.74751 -2.81755,1.95503 -0.86251,1.20752 -0.86251,2.76003 0,1.84004 1.26502,2.99005 1.32251,1.09252 3.39255,1.72503 2.12753,0.63251 4.71506,1.26502 2.58754,0.575 5.11757,1.32251 2.58754,0.74751 4.65757,1.95502 2.12753,1.20753 3.39255,3.27755 1.32252,2.07004 1.32252,5.23258 0,3.22004 -1.78253,5.98008 -1.72502,2.70254 -5.34758,4.37006 -3.62255,1.61003 -9.14263,1.61003 z m 38.44934,0 q -4.71507,0 -9.02764,-1.32252 -4.31255,-1.38002 -6.84258,-3.50755 l 2.58753,-5.80758 q 2.41504,1.89752 5.98008,3.16254 3.56506,1.26502 7.30261,1.26502 3.16254,0 5.11757,-0.69001 1.95502,-0.69001 2.87504,-1.84003 0.92001,-1.20752 0.92001,-2.70254 0,-1.84002 -1.32251,-2.93253 -1.32252,-1.15002 -3.45005,-1.78253 -2.07003,-0.69001 -4.65757,-1.26502 -2.53004,-0.575 -5.11757,-1.32251 -2.53004,-0.80502 -4.65757,-2.01253 -2.07002,-1.26502 -3.39255,-3.33506 -1.32251,-2.07002 -1.32251,-5.29006 0,-3.27755 1.72502,-5.98009 1.78253,-2.76004 5.34757,-4.37007 3.62256,-1.66751 9.14263,-1.66751 3.62256,0 7.18761,0.92 3.56505,0.92002 6.21009,2.64504 l -2.35754,5.80759 q -2.70254,-1.61002 -5.57758,-2.35753 -2.87504,-0.80502 -5.52008,-0.80502 -3.10504,0 -5.06007,0.74751 -1.89753,0.74751 -2.81753,1.95503 -0.86252,1.20752 -0.86252,2.76003 0,1.84004 1.26502,2.99005 1.32252,1.09252 3.39255,1.72503 2.12753,0.63251 4.71506,1.26502 2.58754,0.575 5.11757,1.32251 2.58754,0.74751 4.65757,1.95502 2.12753,1.20753 3.39255,3.27755 1.32251,2.07004 1.32251,5.23258 0,3.22004 -1.78252,5.98008 -1.72502,2.70254 -5.34757,4.37006 -3.62255,1.61003 -9.14263,1.61003 z m 25.97164,-0.57501 v -40.25057 h 7.47511 v 40.25057 z m 39.25425,0.57501 q -4.60007,0 -8.56763,-1.49502 -3.91005,-1.55253 -6.84259,-4.31257 -2.87504,-2.81753 -4.48506,-6.61259 -1.61003,-3.79505 -1.61003,-8.28012 0,-4.48506 1.61003,-8.28012 1.61002,-3.79504 4.54256,-6.55508 2.93254,-2.81755 6.8426,-4.31257 3.91005,-1.55251 8.56761,-1.55251 4.94508,0 9.02763,1.72502 4.08257,1.66752 6.9001,5.00257 l -4.83006,4.54257 q -2.18504,-2.35754 -4.88757,-3.50755 -2.70255,-1.20753 -5.86508,-1.20753 -3.16255,0 -5.80759,1.03502 -2.58753,1.03502 -4.54256,2.93255 -1.89753,1.89751 -2.99005,4.48506 -1.03501,2.58753 -1.03501,5.69257 0,3.10505 1.03501,5.69259 1.09252,2.58753 2.99005,4.48506 1.95503,1.89753 4.54256,2.93254 2.64504,1.03501 5.80759,1.03501 3.16253,0 5.86508,-1.15001 2.70253,-1.20752 4.88757,-3.62255 l 4.83006,4.60006 q -2.81753,3.27755 -6.9001,5.00257 -4.08255,1.72503 -9.08512,1.72503 z m 18.38142,-0.57501 18.1127,-40.25057 h 7.3601 l 18.1702,40.25057 h -7.82 L 1020.8915,498.297 h 2.99 l -15.5253,36.28302 z m 8.3376,-9.31513 2.0125,-5.86508 h 21.7353 l 2.0125,5.86508 z m 42.7043,9.31513 v -40.25057 h 7.4751 v 33.92548 h 21.0453 v 6.32509 z"
       id="text1"
       aria-label="KLASSICAL" />
    <rect
       style="opacity:1;fill:#760f05;fill-opacity:1;stroke-width:1.85086;stroke-linecap:square"
       id="rect2"
       width="365.79999"
       height="365.79999"
       x="727.09998"
       y="117.10001" />
    <path
       d="m 806.13114,283.04532 h -35.04492 v 166.88635 h 38.75338 q 13.16501,0 21.87989,-5.245 8.71487,-5.4834 12.9796,-15.9734 4.45015,-10.72842 4.45015,-26.46341 v -65.56249 q 0,-16.21182 -5.00642,-28.13228 -4.82099,-12.15886 -14.46298,-18.83431 -9.45656,-6.67546 -23.5487,-6.67546 z m 0.55627,154.9659 H 781.65532 V 294.96578 h 26.33005 q 10.93994,0 17.61516,5.24499 6.67523,5.24501 9.82741,14.06614 3.15219,8.58273 3.15219,18.83432 v 71.52272 q 0,8.10591 -2.03965,14.54295 -1.85423,6.19864 -5.93353,10.49 -3.89388,4.05295 -9.82741,6.19864 -5.93352,2.14568 -14.09213,2.14568 z m 151.05915,11.92045 -42.27643,-166.88635 h -9.82741 l -41.72013,166.88635 h 11.12537 l 14.64845,-58.41022 h 42.09093 l 15.01927,58.41022 z m -65.26886,-71.52272 17.98606,-74.86045 18.54229,74.86045 z m 139.3772,-80.58227 3.1522,-9.05954 q -3.8939,-2.6225 -8.1586,-4.29136 -4.2648,-1.90727 -8.9003,-2.6225 -4.4501,-0.95363 -9.2712,-0.95363 -11.6816,0 -19.84025,5.96022 -7.97315,5.72182 -12.23789,16.68863 -4.07932,10.96682 -4.07932,26.225 v 75.09886 q 0,15.49658 4.45014,26.225 4.45014,10.49 12.42338,15.9734 7.97316,5.245 18.54234,5.245 6.1189,0 11.867,-1.90727 5.7481,-1.66886 10.5691,-4.76818 5.0064,-3.33773 8.344,-7.86751 l 0.7418,12.15887 h 9.4565 v -71.52272 h -37.4554 l 3.7084,13.1125 h 23.9196 v 13.82772 q 0,7.8675 -2.4105,14.30455 -2.4105,6.19863 -6.6752,10.72841 -4.2648,4.29136 -10.0128,6.67545 -5.7482,2.38409 -12.4234,2.38409 -7.9732,0 -13.53588,-4.05296 -5.37727,-4.05295 -8.15865,-11.68204 -2.78129,-7.62908 -2.78129,-18.3575 v -77.48294 q 0,-12.39728 3.3376,-20.02636 3.52301,-7.8675 10.01282,-11.44364 6.6752,-3.57613 15.761,-3.57613 3.1522,0 6.3043,0.47681 3.3376,0.47683 6.6753,1.66887 3.3376,0.95364 6.6752,2.8609 z"
       id="text2"
       style="font-size:213.817px;line-height:0;font-family:'Advent Pro';-inkscape-font-specification:'Advent Pro, Normal';text-align:center;letter-spacing:8.48316px;text-anchor:middle;fill:#ffffff;stroke-width:2.4639"
       aria-label="DAG" />
  </g>
</svg>
